<svg width="277" height="190" viewBox="0 0 277 190" fill="none" xmlns="http://www.w3.org/2000/svg">
<path d="M238.847 16.1775C254.528 26.1651 267.16 41.9696 272.804 59.9492C278.448 77.9264 277.096 98.039 264.887 116.681C252.681 135.317 229.563 152.575 191.483 164.77C153.308 176.994 125.044 184.238 103.598 187.292C82.1565 190.345 67.579 189.201 56.7371 184.695C45.8947 180.189 38.7186 172.292 32.1652 161.695C25.596 151.071 19.7164 137.856 11.3664 122.663C-5.21413 92.4942 -0.40341 61.5409 15.2041 38.4178C30.8183 15.2846 57.2195 -0.00426196 83.9144 1.05143C110.753 2.11262 118.332 8.90454 128.344 12.874C133.382 14.871 138.995 16.1291 147.865 15.5511C156.672 14.9771 168.679 12.5933 186.515 7.35103L186.516 7.35185L186.768 7.2771C204.491 2.05703 223.158 6.18512 238.847 16.1777L238.847 16.1775Z" fill="#B32525" stroke="#B32525" stroke-width="2"/>
</svg>
