<svg width="273" height="226" viewBox="0 0 273 226" fill="none" xmlns="http://www.w3.org/2000/svg">
<path d="M250.49 76.6102C275.427 105.694 276.275 129.306 262.547 146.713C248.779 164.172 220.227 175.565 185.915 179.956C168.627 182.168 154.624 188.304 142.575 195.328C136.553 198.839 131.015 202.574 125.804 206.151C120.587 209.732 115.705 213.148 110.97 216.041C101.494 221.83 92.731 225.444 83.2764 224.086C73.7993 222.725 63.4757 216.349 50.9941 201.792C38.4793 187.196 27.33 175.225 18.7546 164.138C10.1858 153.058 4.23008 142.911 2.09566 132.002C-2.16913 110.207 8.79203 85.2081 45.3075 43.4549C63.5248 22.6244 82.3222 10.6795 101.022 5.35167C119.717 0.024878 138.377 1.295 156.354 6.98755C192.337 18.3817 225.504 47.4702 250.489 76.6101L250.49 76.6102Z" fill="#B32525" stroke="#B32525" stroke-width="2"/>
</svg>
