<svg width="251" height="256" viewBox="0 0 251 256" fill="none" xmlns="http://www.w3.org/2000/svg">
<path d="M80.3425 25.5181C111.976 -0.870536 138.255 -4.08632 158.071 7.01514C177.945 18.1489 191.518 43.7814 197.467 75.5386C200.464 91.5389 207.731 104.054 215.928 114.644C220.025 119.936 224.357 124.752 228.502 129.276C232.652 133.807 236.609 138.038 239.977 142.186C246.719 150.488 251.015 158.343 249.794 167.356C248.57 176.392 241.784 186.735 225.951 199.943C210.076 213.186 197.083 224.878 184.995 234.064C172.916 243.243 161.795 249.873 149.707 252.995C125.557 259.232 97.3687 251.505 49.7275 221.51C25.9596 206.545 12.0729 190.125 5.5611 173.119C-0.949389 156.116 -0.10932 138.472 5.67861 121.014C17.2638 86.0711 48.6483 51.9574 80.3424 25.5184L80.3425 25.5181Z" fill="#B32525" stroke="#B32525" stroke-width="2"/>
</svg>
