<svg width="242" height="217" viewBox="0 0 242 217" fill="none" xmlns="http://www.w3.org/2000/svg">
<path d="M2.65106 51.8062C5.96347 37.9678 9.98293 29.7306 15.0189 25.1117C20.0269 20.5185 26.1128 19.4407 33.753 20.12C41.4228 20.8025 50.5396 23.2405 61.5892 25.5962C72.6134 27.9466 85.4926 30.1957 100.584 30.4614C107.264 30.5791 115.963 27.5265 125.655 23.4076C135.398 19.2666 146.141 14.0494 157.08 9.69934C168.003 5.35571 179.02 1.92062 189.201 1.36492C199.37 0.809985 208.668 3.12761 216.218 10.2508L216.221 10.2542C233.244 25.9854 259.544 78.7056 217.49 161.531C206.969 182.252 194.87 194.761 182.922 202.424C170.972 210.089 159.142 212.926 149.129 214.259C139.228 215.577 131.192 215.412 122.75 213.533C114.297 211.652 105.413 208.048 93.8194 202.455C70.6585 191.283 45.0189 168.651 26.5917 141.268C8.16609 113.887 -2.99649 81.8344 2.65094 51.806L2.65106 51.8062Z" fill="#B32525" stroke="#B32525" stroke-width="2"/>
</svg>
