<svg width="236" height="238" viewBox="0 0 236 238" fill="none" xmlns="http://www.w3.org/2000/svg">
<path d="M131.542 224.746C95.91 242.288 70.3885 239.672 54.0933 225.271C37.7498 210.827 30.5196 184.397 31.8256 153.955C32.4836 138.618 28.3484 125.577 22.9159 114.11C20.2002 108.378 17.1588 103.035 14.23 97.9983C11.2983 92.956 8.4842 88.2288 6.20715 83.7033C1.64939 74.6464 -0.695296 66.5178 2.42347 58.4942C5.54998 50.4516 14.2144 42.3854 32.0485 33.6055C49.9299 24.8021 64.7508 16.8127 78.1712 10.9347C91.5813 5.06127 103.531 1.32633 115.629 1.02039C139.798 0.408653 164.737 13.4836 203.193 51.1448C222.379 69.9337 231.914 87.9651 234.356 104.972C236.798 121.975 232.157 138.011 222.884 152.825C204.323 182.477 167.242 207.17 131.542 224.746L131.542 224.746Z" fill="#B32525" stroke="#B32525" stroke-width="2"/>
</svg>
