<svg width="265" height="219" viewBox="0 0 265 219" fill="none" xmlns="http://www.w3.org/2000/svg">
<path d="M89.182 24.0518C86.1112 30.4293 87.2777 36.6964 80.6618 44.4307C73.5665 52.725 65.4488 55.5457 52.4491 58.6892C38.8233 61.984 25.6407 68.2803 16.0019 78.4195C-0.730698 96.0204 -2.25476 129.951 5.49177 150.826C26.3685 207.084 136.012 241.681 203.919 198.782C245.393 172.582 273.753 115.925 260.863 84.2158C257.765 76.5948 249.378 63.2662 242.514 53.6577C239.785 49.8393 227.239 32.2772 215.436 22.2574C177.409 -10.0219 101.905 -2.37158 89.1819 24.0517L89.182 24.0518Z" fill="#B32525" stroke="#B32525" stroke-width="2" stroke-miterlimit="2" stroke-linejoin="round"/>
</svg>
