<svg width="263" height="220" viewBox="0 0 263 220" fill="none" xmlns="http://www.w3.org/2000/svg">
<path d="M212.917 36.4657C229.586 49.7225 244.545 69.339 253.382 90.6801C262.218 112.018 264.919 135.035 257.152 155.144C249.388 175.247 231.123 192.543 197.834 202.335C164.463 212.151 139.399 217.338 119.9 218.459C100.404 219.58 86.5144 216.634 75.463 210.232C64.4111 203.83 56.1266 193.932 47.8935 180.993C39.6401 168.021 31.522 152.142 20.6979 133.708C-0.79518 97.1041 -2.39209 61.987 7.67585 37.0955C17.7482 12.1933 39.4789 -2.46796 64.7094 1.7308C90.0759 5.95199 98.5197 14.6224 108.688 20.3135C113.803 23.1766 119.313 25.253 127.513 25.5783C135.655 25.9011 146.439 24.4968 162.124 20.4512L162.125 20.4522L162.346 20.3943C177.929 16.3617 196.24 23.2024 212.917 36.4657Z" fill="#B32525" stroke="#B32525" stroke-width="2"/>
</svg>
