<svg width="281" height="317" viewBox="0 0 281 317" fill="none" xmlns="http://www.w3.org/2000/svg">
<path d="M161.151 39.4771C198.089 29.3089 219.811 38.6026 229.709 58.4389C239.637 78.3335 237.779 109.018 227.131 141.931C221.766 158.513 221.351 173.797 222.572 187.689C223.182 194.634 224.202 201.235 225.217 207.474C226.233 213.719 227.244 219.591 227.844 225.107C229.044 236.147 228.579 245.615 223.322 253.59C218.053 261.583 207.886 268.206 189.398 273.295C170.861 278.398 155.281 283.384 141.596 286.418C127.922 289.449 116.204 290.514 105.425 287.796C83.8906 282.368 65.9449 261.8 43.7304 210.974C32.6476 185.618 29.8506 163.523 32.9982 144.336C36.1452 125.152 45.2448 108.813 58.0544 94.9747C83.6944 67.2765 124.142 49.6648 161.151 39.4774L161.151 39.4771Z" fill="#B32525" stroke="#B32525" stroke-width="2"/>
</svg>
