<svg width="252" height="254" viewBox="0 0 252 254" fill="none" xmlns="http://www.w3.org/2000/svg">
<path d="M244.752 126.94C251.715 146.5 253.077 169.931 247.709 191.197C242.343 212.461 230.263 231.518 210.383 242.415C190.508 253.31 162.739 256.103 125.881 244.65C88.9313 233.168 62.5642 222.88 43.8946 212.657C25.2287 202.437 14.3001 192.305 8.17308 181.154C2.04548 170.003 0.679996 157.761 1.28582 143.235C1.8937 128.672 4.46675 111.971 6.16418 91.7893C9.53465 51.7146 30.2896 24.0727 55.3164 10.8415C80.3541 -2.3956 109.648 -1.21411 130.229 16.3134C150.921 33.9352 153.211 45.3321 158.974 55.4402C161.874 60.5258 165.635 65.236 172.982 70.1415C180.276 75.0118 191.098 80.0681 208.105 85.8972L208.104 85.8983L208.345 85.9798C225.25 91.7613 237.786 107.37 244.752 126.94L244.752 126.94Z" fill="#B32525" stroke="#B32525" stroke-width="2"/>
</svg>
