<svg width="240" height="237" viewBox="0 0 240 237" fill="none" xmlns="http://www.w3.org/2000/svg">
<path d="M220.326 22.6896C231.124 32.1414 236.591 39.5956 238.351 46.2592C240.101 52.8857 238.207 58.8246 234.015 65.3264C229.807 71.8532 223.352 78.8479 216.064 87.6067C208.792 96.3453 200.741 106.787 193.422 120.136C190.182 126.043 188.825 135.242 187.953 145.828C187.077 156.469 186.693 168.508 185.443 180.315C184.194 192.105 182.09 203.553 177.809 212.903C173.532 222.241 167.1 229.454 157.199 232.851L157.194 232.852C135.163 240.666 75.7612 239.402 21.5631 162.987C8.00362 143.87 2.51556 127.198 1.28214 112.935C0.0484791 98.6691 3.06743 86.7773 6.57664 77.212C10.046 67.7549 13.9645 60.6583 19.6034 54.0031C25.2493 47.3398 32.6349 41.1007 43.0678 33.3752C63.9094 17.942 96.1434 5.67433 129.234 2.07545C162.323 -1.52297 196.172 3.5548 220.326 22.6896H220.326Z" fill="#B32525" stroke="#B32525" stroke-width="2"/>
</svg>
