<svg width="265" height="195" viewBox="0 0 265 195" fill="none" xmlns="http://www.w3.org/2000/svg">
<path d="M166.503 7.22812C214.047 -3.87244 242.188 0.731401 255.199 14.2003C268.248 27.7086 266.216 50.2587 252.87 75.3103C246.145 87.9322 245.792 99.1127 247.533 109.116C248.404 114.117 249.798 118.826 251.183 123.272C252.569 127.722 253.944 131.901 254.783 135.861C256.464 143.788 255.977 150.735 249.289 157.072C242.585 163.425 229.544 169.267 205.748 174.823C181.889 180.394 161.843 185.584 144.221 189.162C126.611 192.737 111.503 194.684 97.5616 193.78C69.7083 191.975 46.3051 178.776 17.0314 143.951C2.42705 126.577 -1.44628 110.753 2.38608 96.4541C6.21775 82.1581 17.7647 69.3403 34.1291 57.975C66.8844 35.2263 118.869 18.35 166.503 7.22812H166.503Z" fill="#B32525" stroke="#B32525" stroke-width="2"/>
</svg>
