<svg width="159" height="110" viewBox="0 0 159 110" fill="none" xmlns="http://www.w3.org/2000/svg">
<path d="M136.765 10.0946C145.695 15.7901 152.889 24.8027 156.103 35.0558C159.317 45.3075 158.547 56.7769 151.594 67.4074C144.644 78.0351 131.479 87.8763 109.793 94.8305C88.0534 101.802 71.9579 105.933 59.7451 107.674C47.5347 109.415 39.2333 108.763 33.0591 106.193C26.8847 103.624 22.7981 99.1203 19.0661 93.0774C15.3251 87.0191 11.9769 79.4829 7.22175 70.8188C-2.22042 53.6149 0.519156 35.9634 9.4072 22.7773C18.2991 9.58541 33.3338 0.866763 48.5358 1.46878C63.8198 2.07394 68.1358 5.94709 73.8375 8.21073C76.7062 9.34951 79.9027 10.067 84.9542 9.73733C89.9693 9.41001 96.8068 8.05064 106.964 5.06119L106.965 5.06165L107.108 5.01903C117.201 2.04224 127.831 4.39632 136.765 10.0947L136.765 10.0946Z" stroke="#00779D" stroke-width="2"/>
</svg>
