<svg width="159" height="133" viewBox="0 0 159 133" fill="none" xmlns="http://www.w3.org/2000/svg">
<path d="M128.312 22.8919C138.283 30.8219 147.231 42.5563 152.517 55.3222C157.803 68.0866 159.418 81.8548 154.773 93.8836C150.128 105.909 139.202 116.255 119.289 122.113C99.3272 127.985 84.3344 131.087 72.67 131.758C61.0079 132.428 52.6993 130.666 46.0885 126.837C39.4774 123.007 34.5217 117.086 29.5968 109.346C24.6597 101.587 19.8035 92.0879 13.3287 81.0609C0.4718 59.165 -0.483454 38.1584 5.53906 23.2686C11.5642 8.37243 24.5632 -0.397751 39.6558 2.11389C54.8297 4.63896 59.8807 9.82547 65.963 13.2298C69.0232 14.9425 72.319 16.1846 77.2244 16.3792C82.0946 16.5723 88.5455 15.7322 97.928 13.3122L97.9283 13.3128L98.0607 13.2781C107.383 10.8659 118.336 14.9579 128.312 22.8919Z" stroke="#B32525" stroke-width="2"/>
</svg>
