<svg width="129" height="129" viewBox="0 0 129 129" xmlns="http://www.w3.org/2000/svg">
<path d="M124.397 64.7244C127.916 74.6095 128.604 86.4504 125.891 97.1979C123.179 107.944 117.075 117.574 107.028 123.082C96.9837 128.587 82.9501 129.999 64.3234 124.211C45.6506 118.408 32.3255 113.209 22.8906 108.043C13.4575 102.878 7.93458 97.7578 4.83818 92.1224C1.7415 86.487 1.05144 80.3005 1.3576 72.9593C1.6648 65.5995 2.96513 57.1598 3.82295 46.9606C5.52627 26.7082 16.0151 12.739 28.6627 6.05236C41.316 -0.637187 56.1202 -0.0401006 66.5211 8.81769C76.9782 17.7231 78.1353 23.4827 81.0478 28.591C82.5133 31.1611 84.4137 33.5414 88.1267 36.0205C91.813 38.4818 97.2818 41.0371 105.877 43.9829L105.876 43.9835L105.998 44.0247C114.541 46.9464 120.876 54.8344 124.397 64.7244L124.397 64.7244Z" stroke="#FFD048" stroke-width="2"/>
</svg>
