<svg width="118" height="146" viewBox="0 0 118 146" xmlns="http://www.w3.org/2000/svg">
<path d="M74.0146 4.25108C94.7425 -1.45489 106.932 3.76038 112.487 14.8917C118.058 26.0557 117.015 43.2749 111.04 61.7441C108.03 71.0495 107.796 79.6258 108.481 87.4219C108.824 91.3187 109.396 95.0232 109.966 98.5239C110.536 102.029 111.104 105.324 111.44 108.419C112.113 114.614 111.853 119.927 108.903 124.402C105.946 128.888 100.24 132.605 89.8657 135.46C79.4636 138.324 70.7206 141.122 63.0412 142.824C55.3677 144.525 48.7922 145.123 42.7436 143.598C30.6593 140.552 20.5889 129.01 8.12296 100.489C1.90376 86.2595 0.334194 73.8605 2.10048 63.0935C3.86646 52.3285 8.97278 43.1593 16.161 35.3941C30.5492 19.851 53.247 9.96804 74.0145 4.25125L74.0146 4.25108Z" stroke="#615FBF" stroke-width="2"/>
</svg>
