<svg width="141" height="142" viewBox="0 0 141 142" fill="none" xmlns="http://www.w3.org/2000/svg">
<path d="M78.7725 133.774C57.7297 144.126 42.6575 142.583 33.0342 134.084C23.3822 125.56 19.1124 109.963 19.8837 91.9986C20.2722 82.9474 17.8301 75.2518 14.6219 68.4843C13.0181 65.1018 11.2219 61.9488 9.49232 58.9766C7.7609 56.001 6.09902 53.2113 4.75428 50.5407C2.06262 45.196 0.677928 40.399 2.51976 35.664C4.36617 30.9179 9.48309 26.1578 20.0153 20.9764C30.5754 15.7813 39.3281 11.0665 47.2537 7.59773C55.1733 4.13164 62.2303 1.92753 69.3748 1.74699C83.6482 1.38598 98.3763 9.10192 121.087 31.3269C132.418 42.4148 138.049 53.0557 139.491 63.0919C140.933 73.1262 138.193 82.5891 132.716 91.3313C121.754 108.83 99.8557 123.402 78.7726 133.774L78.7725 133.774Z" stroke="#CB4E28" stroke-width="2"/>
</svg>
