<svg width="124" height="122" viewBox="0 0 124 122" fill="none" xmlns="http://www.w3.org/2000/svg">
<path d="M113.007 12.3561C118.481 17.1567 121.252 20.9427 122.144 24.3272C123.031 27.6928 122.071 30.7092 119.946 34.0115C117.813 37.3265 114.541 40.8792 110.846 45.3278C107.16 49.7661 103.079 55.0697 99.3681 61.8494C97.726 64.8499 97.0378 69.5219 96.596 74.8984C96.152 80.3033 95.9572 86.4181 95.3234 92.415C94.6905 98.4029 93.624 104.217 91.4535 108.966C89.2856 113.709 86.025 117.373 81.0058 119.098L81.0034 119.099C69.8355 123.067 39.7231 122.426 12.2487 83.6139C5.37501 73.9039 2.59298 65.4364 1.96772 58.192C1.34235 50.9464 2.87273 44.9065 4.65164 40.0483C6.41035 35.2449 8.39672 31.6405 11.2552 28.2604C14.1173 24.876 17.8613 21.7071 23.1499 17.7833C33.7151 9.94471 50.0553 3.71392 66.83 1.88603C83.6032 0.0583818 100.762 2.6374 113.007 12.3561H113.007Z" stroke="#9FC6DF" stroke-width="2"/>
</svg>
