<svg width="127" height="126" viewBox="0 0 127 126" fill="none" xmlns="http://www.w3.org/2000/svg">
<path d="M106.699 117.437C100.849 122.016 96.4867 124.115 92.8445 124.438C89.2225 124.759 86.2614 123.329 83.194 120.711C80.1149 118.083 76.9752 114.301 72.9781 109.959C68.9904 105.628 64.1728 100.769 57.7695 96.0329C54.9356 93.9369 50.2195 92.5034 44.7354 91.1965C39.2224 89.8828 32.9353 88.6977 26.8413 87.1019C20.7564 85.5086 14.9213 83.5187 10.3664 80.6209C5.81732 77.7268 2.56111 73.938 1.59353 68.7424L1.5931 68.7398C-0.694332 57.1581 4.85941 27.7742 49.4274 7.18017C60.5775 2.02787 69.7794 0.68033 77.367 1.24602C84.9558 1.81176 90.9486 4.29255 95.68 6.82453C100.358 9.32782 103.76 11.8591 106.789 15.208C109.821 18.561 112.488 22.7427 115.683 28.5598C122.068 40.1805 125.853 57.1952 125.017 73.9193C124.182 90.6421 118.73 107.026 106.699 117.436L106.699 117.437Z" stroke="#B32525" stroke-width="2"/>
</svg>
