<svg width="159" height="147" viewBox="0 0 159 147" xmlns="http://www.w3.org/2000/svg">
<path d="M106.223 143.651C97.0428 146.384 90.7963 146.981 86.2311 145.916C81.6912 144.857 78.7504 142.137 76.2209 138.078C73.682 134.003 71.5945 128.641 68.7217 122.333C65.8556 116.04 62.2231 108.846 56.6111 101.169C54.1274 97.7716 49.059 94.3658 43.0014 90.7993C36.9118 87.2142 29.8247 83.4683 23.1587 79.3481C16.5027 75.2342 10.3301 70.7837 6.12366 65.8383C1.92255 60.8991 -0.303086 55.4847 0.887746 49.4223L0.888385 49.4193C3.38443 35.8545 23.4939 5.86334 86.9285 0.688698C102.799 -0.605905 114.574 1.50399 123.521 5.07877C132.469 8.65403 138.609 13.7032 143.196 18.3171C147.731 22.8786 150.706 26.9739 152.856 31.8184C155.008 36.6688 156.34 42.2835 157.569 49.8942C160.025 65.0976 156.873 85.191 148.248 103.167C139.624 121.141 125.555 136.946 106.223 143.651L106.223 143.651Z" stroke="#00779D" stroke-width="2"/>
</svg>
