<svg width="129" height="132" viewBox="0 0 129 132" fill="none" xmlns="http://www.w3.org/2000/svg">
<path d="M41.3354 13.8728C57.4059 0.462114 70.7562 -1.17215 80.823 4.46962C90.9196 10.1278 97.8147 23.1543 100.837 39.2933C102.36 47.4246 106.052 53.7849 110.216 59.1664C112.297 61.8562 114.498 64.3033 116.604 66.6029C118.712 68.9051 120.722 71.0557 122.433 73.1637C125.858 77.3823 128.041 81.3744 127.42 85.9552C126.798 90.5468 123.351 95.8036 115.308 102.516C107.243 109.246 100.642 115.188 94.501 119.856C88.3645 124.521 82.7148 127.89 76.5738 129.477C64.3054 132.646 49.9851 128.72 25.7824 113.476C13.7078 105.871 6.65309 97.5263 3.34496 88.8838C0.0374946 80.243 0.464267 71.276 3.40466 62.4041C9.29017 44.6459 25.2341 27.3093 41.3354 13.873L41.3354 13.8728Z" stroke="#FFD046" stroke-width="2"/>
</svg>
