<svg width="154" height="114" viewBox="0 0 154 114" fill="none" xmlns="http://www.w3.org/2000/svg">
<path d="M96.8119 4.94951C124.073 -1.42797 140.208 1.21702 147.668 8.95515C155.151 16.7159 153.986 29.6714 146.333 44.0641C142.477 51.3156 142.274 57.739 143.273 63.4863C143.772 66.359 144.572 69.0648 145.366 71.6188C146.161 74.1757 146.949 76.5765 147.43 78.8518C148.394 83.4057 148.115 87.3968 144.28 91.0378C140.436 94.6875 132.958 98.0442 119.314 101.236C105.634 104.437 94.1399 107.419 84.0353 109.474C73.9383 111.528 65.2758 112.646 57.2818 112.127C41.3112 111.09 27.8923 103.507 11.1072 83.4997C2.73329 73.5181 0.512381 64.4265 2.7098 56.2116C4.90681 47.9982 11.5276 40.6342 20.9107 34.1046C39.692 21.035 69.4989 11.3392 96.8117 4.94951H96.8119Z" stroke="#615FBF" stroke-width="2"/>
</svg>
