<svg width="170" height="142" viewBox="0 0 170 142" fill="none" xmlns="http://www.w3.org/2000/svg">
<path d="M57.2362 15.773C55.2779 19.8602 56.0218 23.8765 51.8026 28.8331C47.2776 34.1486 42.1007 35.9563 33.8104 37.9709C25.1207 40.0824 16.7137 44.1175 10.5666 50.6153C-0.104351 61.8951 -1.0763 83.6401 3.86394 97.018C17.1778 133.072 87.1017 155.244 130.408 127.751C156.857 110.961 174.944 74.6509 166.723 54.33C164.748 49.446 159.399 40.9041 155.021 34.7464C153.281 32.2993 145.28 21.0444 137.753 14.6231C113.502 -6.0635 65.3501 -1.16072 57.2362 15.773L57.2362 15.773Z" stroke="#CB4E28" stroke-width="2" stroke-miterlimit="2" stroke-linejoin="round"/>
</svg>
