<svg width="18" height="18" viewBox="0 0 18 18" fill="none" xmlns="http://www.w3.org/2000/svg">
<g id="Info Hover Icon">
<circle id="Ellipse 432" cx="9" cy="9" r="9" fill="#00597C"/>
<path id="?" d="M12.5801 6.44905C12.6081 6.63571 12.6221 6.80371 12.6221 6.95305C12.6221 7.61571 12.3748 8.14771 11.8801 8.54905C11.3854 8.95038 10.8348 9.25838 10.2281 9.47305L9.94811 9.58505C9.69611 9.68771 9.52811 9.78105 9.44411 9.86505C9.36011 9.93971 9.31811 10.047 9.31811 10.187V10.369V10.495C9.28078 10.7564 9.18278 10.9477 9.02411 11.069C8.87478 11.1904 8.65078 11.251 8.35211 11.251C7.81078 11.251 7.50278 11.0457 7.42811 10.635L7.41411 10.551V10.495V9.16505L7.42811 9.03905V8.95505L7.44211 8.88505L7.47011 8.81505L7.48411 8.75905L7.51211 8.71705C7.60544 8.54905 7.76878 8.40438 8.00211 8.28305L8.14211 8.22705L8.21211 8.18505C8.35211 8.14771 8.51078 7.97038 8.68811 7.65305C8.79078 7.49438 8.86544 7.32171 8.91211 7.13505C8.95878 6.94838 8.98678 6.82238 8.99611 6.75705C9.00544 6.69171 9.01011 6.57038 9.01011 6.39305V6.23905L8.99611 6.02905C8.99611 5.84238 8.97278 5.70238 8.92611 5.60905C8.88878 5.50638 8.80944 5.41305 8.68811 5.32905C8.57611 5.23571 8.45944 5.18905 8.33811 5.18905C8.14211 5.18905 8.01144 5.24971 7.94611 5.37105C7.88078 5.49238 7.83411 5.59505 7.80611 5.67905C7.78744 5.75371 7.77811 5.93105 7.77811 6.21105L7.73611 6.46305C7.61478 6.94838 7.27878 7.19105 6.72811 7.19105L6.47611 7.20505L6.26611 7.19105C5.86478 7.19105 5.57544 7.12105 5.39811 6.98105C5.22078 6.84105 5.11811 6.60771 5.09011 6.28105C5.03411 5.70238 5.34678 5.19371 6.02811 4.75505C6.70944 4.30705 7.67544 4.08305 8.92611 4.08305C9.06611 4.08305 9.17811 4.08771 9.26211 4.09705C9.35544 4.10638 9.62611 4.15771 10.0741 4.25105C10.5221 4.34438 10.8721 4.45171 11.1241 4.57305C11.3761 4.68505 11.6608 4.91838 11.9781 5.27305C12.3048 5.61838 12.5054 6.01038 12.5801 6.44905ZM9.65411 14.177C9.31811 14.4384 8.91211 14.569 8.43611 14.569C7.88544 14.569 7.43744 14.4477 7.09211 14.205C6.75611 13.9624 6.58811 13.6637 6.58811 13.309C6.58811 12.9917 6.68611 12.707 6.88211 12.455C7.07811 12.203 7.32544 12.0304 7.62411 11.937C7.92278 11.8344 8.19344 11.783 8.43611 11.783C8.89344 11.783 9.29478 11.9184 9.64011 12.189C9.98544 12.4504 10.1581 12.791 10.1581 13.211C10.1581 13.6124 9.99011 13.9344 9.65411 14.177Z" fill="white"/>
</g>
</svg>
